{
    "asset" : {
        "generator" : "Khronos glTF Blender I/O v3.3.27",
        "version" : "2.0"
    },
    "extensionsUsed" : [
        "KHR_materials_specular",
        "KHR_materials_ior"
    ],
    "scene" : 0,
    "scenes" : [
        {
            "name" : "Scene",
            "nodes" : [
                0,
                1
            ]
        }
    ],
    "nodes" : [
        {
            "mesh" : 0,
            "name" : "TQ_ARD-node",
            "rotation" : [
                0,
                0.21643958985805511,
                0,
                0.9762960076332092
            ],
            "translation" : [
                -0.28390949964523315,
                -0.02230731025338173,
                0.04697117954492569
            ]
        },
        {
            "mesh" : 1,
            "name" : "TQ_ARD-node.001",
            "rotation" : [
                0.7071067094802856,
                0,
                0,
                0.7071068286895752
            ],
            "translation" : [
                0.2737513482570648,
                0.0747465193271637,
                -0.1265009045600891
            ]
        }
    ],
    "materials" : [
        {
            "doubleSided" : true,
            "extensions" : {
                "KHR_materials_specular" : {
                    "specularColorFactor" : [
                        0,
                        0,
                        0
                    ]
                },
                "KHR_materials_ior" : {
                    "ior" : 0
                }
            },
            "name" : "TQ_ARD_front",
            "pbrMetallicRoughness" : {
                "baseColorTexture" : {
                    "index" : 0
                },
                "metallicFactor" : 0,
                "roughnessFactor" : 0.5
            }
        },
        {
            "doubleSided" : true,
            "extensions" : {
                "KHR_materials_specular" : {
                    "specularColorFactor" : [
                        0,
                        0,
                        0
                    ]
                },
                "KHR_materials_ior" : {
                    "ior" : 0
                }
            },
            "name" : "TQ_ARD_back",
            "pbrMetallicRoughness" : {
                "baseColorFactor" : [
                    0.3149870038032532,
                    0.2050669938325882,
                    0.08354000002145767,
                    1
                ],
                "metallicFactor" : 0,
                "roughnessFactor" : 0.5
            }
        },
        {
            "doubleSided" : true,
            "extensions" : {
                "KHR_materials_specular" : {
                    "specularColorFactor" : [
                        0,
                        0,
                        0
                    ]
                },
                "KHR_materials_ior" : {
                    "ior" : 0
                }
            },
            "name" : "TQ_ARD_edge",
            "pbrMetallicRoughness" : {
                "baseColorTexture" : {
                    "index" : 1
                },
                "metallicFactor" : 0,
                "roughnessFactor" : 0.5
            }
        },
        {
            "doubleSided" : true,
            "extensions" : {
                "KHR_materials_specular" : {
                    "specularColorFactor" : [
                        0,
                        0,
                        0
                    ]
                },
                "KHR_materials_ior" : {
                    "ior" : 0
                }
            },
            "name" : "TQ_ARD_front.001",
            "pbrMetallicRoughness" : {
                "baseColorTexture" : {
                    "index" : 2
                },
                "metallicFactor" : 0,
                "roughnessFactor" : 0.5
            }
        },
        {
            "doubleSided" : true,
            "extensions" : {
                "KHR_materials_specular" : {
                    "specularColorFactor" : [
                        0,
                        0,
                        0
                    ]
                },
                "KHR_materials_ior" : {
                    "ior" : 0
                }
            },
            "name" : "TQ_ARD_back.001",
            "pbrMetallicRoughness" : {
                "baseColorFactor" : [
                    0.31498682498931885,
                    0.20506657660007477,
                    0.08354000002145767,
                    1
                ],
                "metallicFactor" : 0
            }
        },
        {
            "doubleSided" : true,
            "extensions" : {
                "KHR_materials_specular" : {
                    "specularColorFactor" : [
                        0,
                        0,
                        0
                    ]
                },
                "KHR_materials_ior" : {
                    "ior" : 0
                }
            },
            "name" : "TQ_ARD_edge.001",
            "pbrMetallicRoughness" : {
                "baseColorTexture" : {
                    "index" : 3
                },
                "metallicFactor" : 0,
                "roughnessFactor" : 0.5
            }
        }
    ],
    "meshes" : [
        {
            "name" : "TQ_ARD-geom",
            "primitives" : [
                {
                    "attributes" : {
                        "POSITION" : 0,
                        "NORMAL" : 1,
                        "TEXCOORD_0" : 2
                    },
                    "indices" : 3,
                    "material" : 0
                },
                {
                    "attributes" : {
                        "POSITION" : 4,
                        "NORMAL" : 5,
                        "TEXCOORD_0" : 6
                    },
                    "indices" : 7,
                    "material" : 1
                },
                {
                    "attributes" : {
                        "POSITION" : 8,
                        "NORMAL" : 9,
                        "TEXCOORD_0" : 10
                    },
                    "indices" : 11,
                    "material" : 2
                }
            ]
        },
        {
            "name" : "TQ_ARD-geom.001",
            "primitives" : [
                {
                    "attributes" : {
                        "POSITION" : 12,
                        "NORMAL" : 13,
                        "TEXCOORD_0" : 14
                    },
                    "indices" : 15,
                    "material" : 3
                },
                {
                    "attributes" : {
                        "POSITION" : 16,
                        "NORMAL" : 17,
                        "TEXCOORD_0" : 18
                    },
                    "indices" : 19,
                    "material" : 4
                },
                {
                    "attributes" : {
                        "POSITION" : 20,
                        "NORMAL" : 21,
                        "TEXCOORD_0" : 22
                    },
                    "indices" : 23,
                    "material" : 5
                }
            ]
        }
    ],
    "textures" : [
        {
            "sampler" : 0,
            "source" : 0
        },
        {
            "sampler" : 0,
            "source" : 1
        },
        {
            "sampler" : 0,
            "source" : 0
        },
        {
            "sampler" : 0,
            "source" : 1
        }
    ],
    "images" : [
        {
            "bufferView" : 4,
            "mimeType" : "image/jpeg",
            "name" : "1-01"
        },
        {
            "bufferView" : 13,
            "mimeType" : "image/png",
            "name" : "TQ_ARD-I1"
        }
    ],
    "accessors" : [
        {
            "bufferView" : 0,
            "componentType" : 5126,
            "count" : 1361,
            "max" : [
                0.20092444121837616,
                0.04240592196583748,
                0.09569058567285538
            ],
            "min" : [
                -0.19915033876895905,
                -0.050769757479429245,
                -0.21048521995544434
            ],
            "type" : "VEC3"
        },
        {
            "bufferView" : 1,
            "componentType" : 5126,
            "count" : 1361,
            "type" : "VEC3"
        },
        {
            "bufferView" : 2,
            "componentType" : 5126,
            "count" : 1361,
            "type" : "VEC2"
        },
        {
            "bufferView" : 3,
            "componentType" : 5123,
            "count" : 2937,
            "type" : "SCALAR"
        },
        {
            "bufferView" : 5,
            "componentType" : 5126,
            "count" : 1115,
            "max" : [
                0.20083625614643097,
                0.04207073524594307,
                0.09439123421907425
            ],
            "min" : [
                -0.19906555116176605,
                -0.05043095350265503,
                -0.20889770984649658
            ],
            "type" : "VEC3"
        },
        {
            "bufferView" : 6,
            "componentType" : 5126,
            "count" : 1115,
            "type" : "VEC3"
        },
        {
            "bufferView" : 7,
            "componentType" : 5126,
            "count" : 1115,
            "type" : "VEC2"
        },
        {
            "bufferView" : 8,
            "componentType" : 5123,
            "count" : 2937,
            "type" : "SCALAR"
        },
        {
            "bufferView" : 9,
            "componentType" : 5126,
            "count" : 1871,
            "max" : [
                0.20092444121837616,
                0.042405832558870316,
                0.09569058567285538
            ],
            "min" : [
                -0.19915033876895905,
                -0.050769735127687454,
                -0.21048521995544434
            ],
            "type" : "VEC3"
        },
        {
            "bufferView" : 10,
            "componentType" : 5126,
            "count" : 1871,
            "type" : "VEC3"
        },
        {
            "bufferView" : 11,
            "componentType" : 5126,
            "count" : 1871,
            "type" : "VEC2"
        },
        {
            "bufferView" : 12,
            "componentType" : 5123,
            "count" : 2670,
            "type" : "SCALAR"
        },
        {
            "bufferView" : 14,
            "componentType" : 5126,
            "count" : 1352,
            "max" : [
                0.20092371106147766,
                0.25597435235977173,
                0.14782360196113586
            ],
            "min" : [
                -0.1991509348154068,
                -0.23993554711341858,
                -0.20618002116680145
            ],
            "type" : "VEC3"
        },
        {
            "bufferView" : 15,
            "componentType" : 5126,
            "count" : 1352,
            "type" : "VEC3"
        },
        {
            "bufferView" : 16,
            "componentType" : 5126,
            "count" : 1352,
            "type" : "VEC2"
        },
        {
            "bufferView" : 17,
            "componentType" : 5123,
            "count" : 2937,
            "type" : "SCALAR"
        },
        {
            "bufferView" : 18,
            "componentType" : 5126,
            "count" : 1125,
            "max" : [
                0.20083551108837128,
                0.25392186641693115,
                0.14748482406139374
            ],
            "min" : [
                -0.19906629621982574,
                -0.23823808133602142,
                -0.20492936670780182
            ],
            "type" : "VEC3"
        },
        {
            "bufferView" : 19,
            "componentType" : 5126,
            "count" : 1125,
            "type" : "VEC3"
        },
        {
            "bufferView" : 20,
            "componentType" : 5126,
            "count" : 1125,
            "type" : "VEC2"
        },
        {
            "bufferView" : 21,
            "componentType" : 5123,
            "count" : 2937,
            "type" : "SCALAR"
        },
        {
            "bufferView" : 22,
            "componentType" : 5126,
            "count" : 1842,
            "max" : [
                0.20092371106147766,
                0.25597435235977173,
                0.14782360196113586
            ],
            "min" : [
                -0.1991509348154068,
                -0.23993554711341858,
                -0.20618002116680145
            ],
            "type" : "VEC3"
        },
        {
            "bufferView" : 23,
            "componentType" : 5126,
            "count" : 1842,
            "type" : "VEC3"
        },
        {
            "bufferView" : 24,
            "componentType" : 5126,
            "count" : 1842,
            "type" : "VEC2"
        },
        {
            "bufferView" : 25,
            "componentType" : 5123,
            "count" : 2670,
            "type" : "SCALAR"
        }
    ],
    "bufferViews" : [
        {
            "buffer" : 0,
            "byteLength" : 16332,
            "byteOffset" : 0,
            "target" : 34962
        },
        {
            "buffer" : 0,
            "byteLength" : 16332,
            "byteOffset" : 16332,
            "target" : 34962
        },
        {
            "buffer" : 0,
            "byteLength" : 10888,
            "byteOffset" : 32664,
            "target" : 34962
        },
        {
            "buffer" : 0,
            "byteLength" : 5874,
            "byteOffset" : 43552,
            "target" : 34963
        },
        {
            "buffer" : 0,
            "byteLength" : 510436,
            "byteOffset" : 49428
        },
        {
            "buffer" : 0,
            "byteLength" : 13380,
            "byteOffset" : 559864,
            "target" : 34962
        },
        {
            "buffer" : 0,
            "byteLength" : 13380,
            "byteOffset" : 573244,
            "target" : 34962
        },
        {
            "buffer" : 0,
            "byteLength" : 8920,
            "byteOffset" : 586624,
            "target" : 34962
        },
        {
            "buffer" : 0,
            "byteLength" : 5874,
            "byteOffset" : 595544,
            "target" : 34963
        },
        {
            "buffer" : 0,
            "byteLength" : 22452,
            "byteOffset" : 601420,
            "target" : 34962
        },
        {
            "buffer" : 0,
            "byteLength" : 22452,
            "byteOffset" : 623872,
            "target" : 34962
        },
        {
            "buffer" : 0,
            "byteLength" : 14968,
            "byteOffset" : 646324,
            "target" : 34962
        },
        {
            "buffer" : 0,
            "byteLength" : 5340,
            "byteOffset" : 661292,
            "target" : 34963
        },
        {
            "buffer" : 0,
            "byteLength" : 767,
            "byteOffset" : 666632
        },
        {
            "buffer" : 0,
            "byteLength" : 16224,
            "byteOffset" : 667400,
            "target" : 34962
        },
        {
            "buffer" : 0,
            "byteLength" : 16224,
            "byteOffset" : 683624,
            "target" : 34962
        },
        {
            "buffer" : 0,
            "byteLength" : 10816,
            "byteOffset" : 699848,
            "target" : 34962
        },
        {
            "buffer" : 0,
            "byteLength" : 5874,
            "byteOffset" : 710664,
            "target" : 34963
        },
        {
            "buffer" : 0,
            "byteLength" : 13500,
            "byteOffset" : 716540,
            "target" : 34962
        },
        {
            "buffer" : 0,
            "byteLength" : 13500,
            "byteOffset" : 730040,
            "target" : 34962
        },
        {
            "buffer" : 0,
            "byteLength" : 9000,
            "byteOffset" : 743540,
            "target" : 34962
        },
        {
            "buffer" : 0,
            "byteLength" : 5874,
            "byteOffset" : 752540,
            "target" : 34963
        },
        {
            "buffer" : 0,
            "byteLength" : 22104,
            "byteOffset" : 758416,
            "target" : 34962
        },
        {
            "buffer" : 0,
            "byteLength" : 22104,
            "byteOffset" : 780520,
            "target" : 34962
        },
        {
            "buffer" : 0,
            "byteLength" : 14736,
            "byteOffset" : 802624,
            "target" : 34962
        },
        {
            "buffer" : 0,
            "byteLength" : 5340,
            "byteOffset" : 817360,
            "target" : 34963
        }
    ],
    "samplers" : [
        {
            "magFilter" : 9729,
            "minFilter" : 9987
        }
    ],
    "buffers" : [
        {
            "byteLength" : 822700,
            "uri" : "data:application/octet-stream;base64,"
        }
    ]
}
